<svg xmlns="http://www.w3.org/2000/svg" width="1600" height="900" viewBox="0 0 1600 900"><rect x="0.0" y="0.0" width="1600.0" height="900.0" fill="#ffffff" rx="0" opacity="1.0"/><text x="70" y="78" font-family="NanumGothic, 나눔고딕, sans-serif" font-size="40" fill="#1a1a1a" text-anchor="start" font-weight="bold">console_v2 정량 채점 — B4 AP50 0.997</text><text x="70" y="118" font-family="NanumGothic, 나눔고딕, sans-serif" font-size="22" fill="#6b7280" text-anchor="start" font-weight="normal">모조 콘솔·클린룸 형광등 · test 113장 전량 수동 라벨 · 누출 0 (§10.20)</text><text x="70" y="168" font-family="NanumGothic, 나눔고딕, sans-serif" font-size="28" fill="#1a1a1a" text-anchor="start" font-weight="bold">클래스별 AP50</text><line x1="100.0" y1="620.0" x2="1070.0" y2="620.0" stroke="#e5e7eb" stroke-width="1"/><text x="88" y="627.0" font-family="NanumGothic, 나눔고딕, sans-serif" font-size="16" fill="#6b7280" text-anchor="end" font-weight="normal">0.0</text><line x1="100.0" y1="544.0" x2="1070.0" y2="544.0" stroke="#e5e7eb" stroke-width="1"/><text x="88" y="551.0" font-family="NanumGothic, 나눔고딕, sans-serif" font-size="16" fill="#6b7280" text-anchor="end" font-weight="normal">0.2</text><line x1="100.0" y1="468.0" x2="1070.0" y2="468.0" stroke="#e5e7eb" stroke-width="1"/><text x="88" y="475.0" font-family="NanumGothic, 나눔고딕, sans-serif" font-size="16" fill="#6b7280" text-anchor="end" font-weight="normal">0.4</text><line x1="100.0" y1="392.0" x2="1070.0" y2="392.0" stroke="#e5e7eb" stroke-width="1"/><text x="88" y="399.0" font-family="NanumGothic, 나눔고딕, sans-serif" font-size="16" fill="#6b7280" text-anchor="end" font-weight="normal">0.6</text><line x1="100.0" y1="316.0" x2="1070.0" y2="316.0" stroke="#e5e7eb" stroke-width="1"/><text x="88" y="323.0" font-family="NanumGothic, 나눔고딕, sans-serif" font-size="16" fill="#6b7280" text-anchor="end" font-weight="normal">0.8</text><line x1="100.0" y1="240.0" x2="1070.0" y2="240.0" stroke="#e5e7eb" stroke-width="1"/><text x="88" y="247.0" font-family="NanumGothic, 나눔고딕, sans-serif" font-size="16" fill="#6b7280" text-anchor="end" font-weight="normal">1.0</text><rect x="120.0" y="243.4" width="130.0" height="376.6" fill="#2563eb" rx="4" opacity="1.0"/><text x="185.0" y="229.42000000000002" font-family="NanumGothic, 나눔고딕, sans-serif" font-size="26" fill="#2563eb" text-anchor="middle" font-weight="bold">0.991</text><text x="185.0" y="656" font-family="NanumGothic, 나눔고딕, sans-serif" font-size="26" fill="#1a1a1a" text-anchor="middle" font-weight="normal">B1</text><rect x="310.0" y="240.0" width="130.0" height="380.0" fill="#2563eb" rx="4" opacity="1.0"/><text x="375.0" y="226.0" font-family="NanumGothic, 나눔고딕, sans-serif" font-size="26" fill="#2563eb" text-anchor="middle" font-weight="bold">1.000</text><text x="375.0" y="656" font-family="NanumGothic, 나눔고딕, sans-serif" font-size="26" fill="#1a1a1a" text-anchor="middle" font-weight="normal">B2</text><rect x="500.0" y="240.0" width="130.0" height="380.0" fill="#2563eb" rx="4" opacity="1.0"/><text x="565.0" y="226.0" font-family="NanumGothic, 나눔고딕, sans-serif" font-size="26" fill="#2563eb" text-anchor="middle" font-weight="bold">1.000</text><text x="565.0" y="656" font-family="NanumGothic, 나눔고딕, sans-serif" font-size="26" fill="#1a1a1a" text-anchor="middle" font-weight="normal">B3</text><rect x="690.0" y="241.2" width="130.0" height="378.8" fill="#059669" rx="4" opacity="1.0"/><text x="755.0" y="227.178" font-family="NanumGothic, 나눔고딕, sans-serif" font-size="26" fill="#059669" text-anchor="middle" font-weight="bold">0.997</text><text x="755.0" y="656" font-family="NanumGothic, 나눔고딕, sans-serif" font-size="26" fill="#1a1a1a" text-anchor="middle" font-weight="normal">B4</text><rect x="880.0" y="250.2" width="130.0" height="369.8" fill="#2563eb" rx="4" opacity="1.0"/><text x="945.0" y="236.18400000000003" font-family="NanumGothic, 나눔고딕, sans-serif" font-size="26" fill="#2563eb" text-anchor="middle" font-weight="bold">0.973</text><text x="945.0" y="656" font-family="NanumGothic, 나눔고딕, sans-serif" font-size="26" fill="#1a1a1a" text-anchor="middle" font-weight="normal">EMO</text><text x="120" y="712" font-family="NanumGothic, 나눔고딕, sans-serif" font-size="24" fill="#6b7280" text-anchor="start" font-weight="normal">mAP50 0.9922 · test 113장 · conf 0.65</text><text x="120" y="752" font-family="NanumGothic, 나눔고딕, sans-serif" font-size="24" fill="#059669" text-anchor="start" font-weight="normal">🔵 B4 = v1 이 실추론에서 0회 잡던 클래스</text><text x="1010" y="168" font-family="NanumGothic, 나눔고딕, sans-serif" font-size="28" fill="#1a1a1a" text-anchor="start" font-weight="bold">혼동행렬 (정답 → 예측)</text><text x="1157.0" y="198" font-family="NanumGothic, 나눔고딕, sans-serif" font-size="18" fill="#6b7280" text-anchor="middle" font-weight="normal">B1</text><text x="1231.0" y="198" font-family="NanumGothic, 나눔고딕, sans-serif" font-size="18" fill="#6b7280" text-anchor="middle" font-weight="normal">B2</text><text x="1305.0" y="198" font-family="NanumGothic, 나눔고딕, sans-serif" font-size="18" fill="#6b7280" text-anchor="middle" font-weight="normal">B3</text><text x="1379.0" y="198" font-family="NanumGothic, 나눔고딕, sans-serif" font-size="18" fill="#6b7280" text-anchor="middle" font-weight="normal">B4</text><text x="1453.0" y="198" font-family="NanumGothic, 나눔고딕, sans-serif" font-size="18" fill="#6b7280" text-anchor="middle" font-weight="normal">EMO</text><text x="1527.0" y="198" font-family="NanumGothic, 나눔고딕, sans-serif" font-size="18" fill="#6b7280" text-anchor="middle" font-weight="normal">미검출</text><text x="1110" y="254.0" font-family="NanumGothic, 나눔고딕, sans-serif" font-size="21" fill="#1a1a1a" text-anchor="end" font-weight="normal">B1</text><rect x="1120.0" y="210.0" width="70.0" height="70.0" fill="#dbeafe" rx="4" opacity="1.0"/><text x="1155.0" y="255.0" font-family="NanumGothic, 나눔고딕, sans-serif" font-size="23" fill="#1a1a1a" text-anchor="middle" font-weight="normal">110</text><rect x="1194.0" y="210.0" width="70.0" height="70.0" fill="#fafafa" rx="4" opacity="1.0"/><rect x="1268.0" y="210.0" width="70.0" height="70.0" fill="#fafafa" rx="4" opacity="1.0"/><rect x="1342.0" y="210.0" width="70.0" height="70.0" fill="#fafafa" rx="4" opacity="1.0"/><rect x="1416.0" y="210.0" width="70.0" height="70.0" fill="#fafafa" rx="4" opacity="1.0"/><rect x="1490.0" y="210.0" width="70.0" height="70.0" fill="#fee2e2" rx="4" opacity="1.0"/><text x="1525.0" y="255.0" font-family="NanumGothic, 나눔고딕, sans-serif" font-size="23" fill="#dc2626" text-anchor="middle" font-weight="bold">1</text><text x="1110" y="328.0" font-family="NanumGothic, 나눔고딕, sans-serif" font-size="21" fill="#1a1a1a" text-anchor="end" font-weight="normal">B2</text><rect x="1120.0" y="284.0" width="70.0" height="70.0" fill="#fafafa" rx="4" opacity="1.0"/><rect x="1194.0" y="284.0" width="70.0" height="70.0" fill="#dbeafe" rx="4" opacity="1.0"/><text x="1229.0" y="329.0" font-family="NanumGothic, 나눔고딕, sans-serif" font-size="23" fill="#1a1a1a" text-anchor="middle" font-weight="normal">105</text><rect x="1268.0" y="284.0" width="70.0" height="70.0" fill="#fafafa" rx="4" opacity="1.0"/><rect x="1342.0" y="284.0" width="70.0" height="70.0" fill="#fafafa" rx="4" opacity="1.0"/><rect x="1416.0" y="284.0" width="70.0" height="70.0" fill="#fafafa" rx="4" opacity="1.0"/><rect x="1490.0" y="284.0" width="70.0" height="70.0" fill="#fafafa" rx="4" opacity="1.0"/><text x="1110" y="402.0" font-family="NanumGothic, 나눔고딕, sans-serif" font-size="21" fill="#1a1a1a" text-anchor="end" font-weight="normal">B3</text><rect x="1120.0" y="358.0" width="70.0" height="70.0" fill="#fafafa" rx="4" opacity="1.0"/><rect x="1194.0" y="358.0" width="70.0" height="70.0" fill="#fafafa" rx="4" opacity="1.0"/><rect x="1268.0" y="358.0" width="70.0" height="70.0" fill="#dbeafe" rx="4" opacity="1.0"/><text x="1303.0" y="403.0" font-family="NanumGothic, 나눔고딕, sans-serif" font-size="23" fill="#1a1a1a" text-anchor="middle" font-weight="normal">105</text><rect x="1342.0" y="358.0" width="70.0" height="70.0" fill="#fafafa" rx="4" opacity="1.0"/><rect x="1416.0" y="358.0" width="70.0" height="70.0" fill="#fafafa" rx="4" opacity="1.0"/><rect x="1490.0" y="358.0" width="70.0" height="70.0" fill="#fafafa" rx="4" opacity="1.0"/><text x="1110" y="476.0" font-family="NanumGothic, 나눔고딕, sans-serif" font-size="21" fill="#1a1a1a" text-anchor="end" font-weight="normal">B4</text><rect x="1120.0" y="432.0" width="70.0" height="70.0" fill="#fafafa" rx="4" opacity="1.0"/><rect x="1194.0" y="432.0" width="70.0" height="70.0" fill="#fafafa" rx="4" opacity="1.0"/><rect x="1268.0" y="432.0" width="70.0" height="70.0" fill="#fafafa" rx="4" opacity="1.0"/><rect x="1342.0" y="432.0" width="70.0" height="70.0" fill="#dbeafe" rx="4" opacity="1.0"/><text x="1377.0" y="477.0" font-family="NanumGothic, 나눔고딕, sans-serif" font-size="23" fill="#1a1a1a" text-anchor="middle" font-weight="normal">106</text><rect x="1416.0" y="432.0" width="70.0" height="70.0" fill="#fafafa" rx="4" opacity="1.0"/><rect x="1490.0" y="432.0" width="70.0" height="70.0" fill="#fafafa" rx="4" opacity="1.0"/><text x="1110" y="550.0" font-family="NanumGothic, 나눔고딕, sans-serif" font-size="21" fill="#1a1a1a" text-anchor="end" font-weight="normal">EMO</text><rect x="1120.0" y="506.0" width="70.0" height="70.0" fill="#fafafa" rx="4" opacity="1.0"/><rect x="1194.0" y="506.0" width="70.0" height="70.0" fill="#fafafa" rx="4" opacity="1.0"/><rect x="1268.0" y="506.0" width="70.0" height="70.0" fill="#fafafa" rx="4" opacity="1.0"/><rect x="1342.0" y="506.0" width="70.0" height="70.0" fill="#fee2e2" rx="4" opacity="1.0"/><text x="1377.0" y="551.0" font-family="NanumGothic, 나눔고딕, sans-serif" font-size="23" fill="#dc2626" text-anchor="middle" font-weight="bold">1</text><rect x="1416.0" y="506.0" width="70.0" height="70.0" fill="#dbeafe" rx="4" opacity="1.0"/><text x="1451.0" y="551.0" font-family="NanumGothic, 나눔고딕, sans-serif" font-size="23" fill="#1a1a1a" text-anchor="middle" font-weight="normal">109</text><rect x="1490.0" y="506.0" width="70.0" height="70.0" fill="#fee2e2" rx="4" opacity="1.0"/><text x="1525.0" y="551.0" font-family="NanumGothic, 나눔고딕, sans-serif" font-size="23" fill="#dc2626" text-anchor="middle" font-weight="bold">2</text><text x="1010" y="632" font-family="NanumGothic, 나눔고딕, sans-serif" font-size="24" fill="#1a1a1a" text-anchor="start" font-weight="normal">오분류 1건 · 배경 오검출 0건</text></svg>