<svg xmlns="http://www.w3.org/2000/svg" width="1600" height="900" viewBox="0 0 1600 900"><rect x="0.0" y="0.0" width="1600.0" height="900.0" fill="#FDF4ED" rx="0" opacity="1.0"/><text x="70" y="78" font-family="Pretendard Black, Pretendard, sans-serif" font-size="40" fill="#1A1A1A" text-anchor="start" font-weight="900">HOI 통합 — 버튼과 손을 한 장치에서</text><text x="70" y="118" font-family="Pretendard, NanumGothic, sans-serif" font-size="22" fill="#6E5F55" text-anchor="start" font-weight="normal">§10.21 · Rpi5 d9b5077 · 0953294</text><text x="90" y="167" font-family="Pretendard, NanumGothic, sans-serif" font-size="32" fill="#C62828" text-anchor="start" font-weight="bold">BEFORE</text><rect x="130.0" y="245.0" width="260.0" height="90.0" fill="#FFFFFF" rx="8" opacity="1.0" stroke="#1A1A1A" stroke-width="1.5"/><text x="260" y="299" font-family="Pretendard, NanumGothic, sans-serif" font-size="24" fill="#1A1A1A" text-anchor="middle" font-weight="normal">버튼 검출 모델</text><rect x="130.0" y="375.0" width="260.0" height="70.0" fill="#FFFFFF" rx="8" opacity="1.0" stroke="#1A1A1A" stroke-width="1.5"/><rect x="130.0" y="375.0" width="7.0" height="70.0" fill="#C62828" rx="3" opacity="1.0"/><text x="260" y="419" font-family="Pretendard, NanumGothic, sans-serif" font-size="23" fill="#C62828" text-anchor="middle" font-weight="normal">자체 VDevice</text><line x1="260.0" y1="335.0" x2="260.0" y2="375.0" stroke="#6E5F55" stroke-width="3"/><rect x="430.0" y="245.0" width="260.0" height="90.0" fill="#FFFFFF" rx="8" opacity="1.0" stroke="#1A1A1A" stroke-width="1.5"/><text x="560" y="299" font-family="Pretendard, NanumGothic, sans-serif" font-size="24" fill="#1A1A1A" text-anchor="middle" font-weight="normal">손 검출 모델</text><rect x="430.0" y="375.0" width="260.0" height="70.0" fill="#FFFFFF" rx="8" opacity="1.0" stroke="#1A1A1A" stroke-width="1.5"/><rect x="430.0" y="375.0" width="7.0" height="70.0" fill="#C62828" rx="3" opacity="1.0"/><text x="560" y="419" font-family="Pretendard, NanumGothic, sans-serif" font-size="23" fill="#C62828" text-anchor="middle" font-weight="normal">자체 VDevice</text><line x1="560.0" y1="335.0" x2="560.0" y2="375.0" stroke="#6E5F55" stroke-width="3"/><rect x="130.0" y="495.0" width="560.0" height="70.0" fill="#FFFFFF" rx="8" opacity="1.0" stroke="#1A1A1A" stroke-width="1.5"/><rect x="130.0" y="495.0" width="7.0" height="70.0" fill="#C62828" rx="3" opacity="1.0"/><text x="410" y="539" font-family="Pretendard, NanumGothic, sans-serif" font-size="25" fill="#C62828" text-anchor="middle" font-weight="normal">NPU 를 다퉈 동시 실행 불가</text><text x="890" y="167" font-family="Pretendard, NanumGothic, sans-serif" font-size="32" fill="#E85D2F" text-anchor="start" font-weight="bold">AFTER</text><rect x="930.0" y="245.0" width="260.0" height="90.0" fill="#FFFFFF" rx="8" opacity="1.0" stroke="#1A1A1A" stroke-width="1.5"/><text x="1060" y="299" font-family="Pretendard, NanumGothic, sans-serif" font-size="24" fill="#1A1A1A" text-anchor="middle" font-weight="normal">버튼 검출 모델</text><rect x="1230.0" y="245.0" width="260.0" height="90.0" fill="#FFFFFF" rx="8" opacity="1.0" stroke="#1A1A1A" stroke-width="1.5"/><text x="1360" y="299" font-family="Pretendard, NanumGothic, sans-serif" font-size="24" fill="#1A1A1A" text-anchor="middle" font-weight="normal">손 검출 모델</text><line x1="1060.0" y1="335.0" x2="1220.0" y2="405.0" stroke="#6E5F55" stroke-width="3"/><line x1="1360.0" y1="335.0" x2="1220.0" y2="405.0" stroke="#6E5F55" stroke-width="3"/><rect x="930.0" y="405.0" width="560.0" height="80.0" fill="#FFFFFF" rx="8" opacity="1.0" stroke="#1A1A1A" stroke-width="1.5"/><rect x="930.0" y="405.0" width="7.0" height="80.0" fill="#E85D2F" rx="3" opacity="1.0"/><text x="1210" y="455" font-family="Pretendard, NanumGothic, sans-serif" font-size="25" fill="#E85D2F" text-anchor="middle" font-weight="normal">공유 스케줄러 (ROUND_ROBIN)</text><rect x="930.0" y="515.0" width="560.0" height="70.0" fill="#FFFFFF" rx="8" opacity="1.0" stroke="#1A1A1A" stroke-width="1.5"/><rect x="930.0" y="515.0" width="7.0" height="70.0" fill="#E85D2F" rx="3" opacity="1.0"/><text x="1210" y="559" font-family="Pretendard, NanumGothic, sans-serif" font-size="25" fill="#E85D2F" text-anchor="middle" font-weight="normal">버튼 + 손 동시 추론</text><text x="770" y="435" font-family="Pretendard, NanumGothic, sans-serif" font-size="60" fill="#6E5F55" text-anchor="middle" font-weight="normal">→</text><text x="90" y="675" font-family="Pretendard, NanumGothic, sans-serif" font-size="30" fill="#1A1A1A" text-anchor="start" font-weight="bold">합쳤더니 코드가 줄었다</text><text x="90" y="731" font-family="Pretendard, NanumGothic, sans-serif" font-size="34" fill="#E85D2F" text-anchor="start" font-weight="bold">삭제  − 81줄</text><text x="370" y="731" font-family="Pretendard, NanumGothic, sans-serif" font-size="34" fill="#6E5F55" text-anchor="start" font-weight="bold">추가  + 15줄</text><text x="740" y="731" font-family="Pretendard, NanumGothic, sans-serif" font-size="23" fill="#6E5F55" text-anchor="start" font-weight="normal">MediaPipe 블록 4곳 → hand_tracker.py</text><text x="90" y="781" font-family="Pretendard, NanumGothic, sans-serif" font-size="26" fill="#E85D2F" text-anchor="start" font-weight="normal">🔑 이 시점에 「감지」가 성립 — 이후는 성능 문제</text></svg>